<?xml version="1.0" encoding="UTF-8"?> <svg xmlns="http://www.w3.org/2000/svg" width="44" height="43" viewBox="0 0 44 43" fill="none"><path d="M17.8612 34.6605H5.45996C3.5031 34.6605 1.91675 33.0741 1.91675 31.1173V4.54321C1.91675 2.58635 3.5031 1 5.45996 1H39.1205C41.0773 1 42.6637 2.58635 42.6637 4.54321V16.9444" stroke="#00A24C" stroke-width="2" stroke-linecap="round" stroke-linejoin="round"></path><path d="M1.91675 9.85791H42.6637" stroke="#00A24C" stroke-width="2" stroke-linecap="round" stroke-linejoin="round"></path><path d="M8.11725 4.98611C8.36186 4.98611 8.56015 5.18441 8.56015 5.42902C8.56015 5.67362 8.36186 5.87192 8.11725 5.87192C7.87264 5.87192 7.67435 5.67362 7.67435 5.42902C7.67435 5.18441 7.87264 4.98611 8.11725 4.98611" stroke="#00A24C" stroke-width="2" stroke-linecap="round" stroke-linejoin="round"></path><path d="M13.4322 4.98611C13.6768 4.98611 13.8751 5.18441 13.8751 5.42902C13.8751 5.67362 13.6768 5.87192 13.4322 5.87192C13.1876 5.87192 12.9893 5.67362 12.9893 5.42902C12.9893 5.18441 13.1876 4.98611 13.4322 4.98611" stroke="#00A24C" stroke-width="2" stroke-linecap="round" stroke-linejoin="round"></path><path d="M18.7469 4.98611C18.9915 4.98611 19.1898 5.18441 19.1898 5.42902C19.1898 5.67362 18.9915 5.87192 18.7469 5.87192C18.5023 5.87192 18.304 5.67362 18.304 5.42902C18.304 5.18441 18.5023 4.98611 18.7469 4.98611" stroke="#00A24C" stroke-width="2" stroke-linecap="round" stroke-linejoin="round"></path><path d="M20.5185 25.8025H8.11725C7.62803 25.8025 7.23145 25.4059 7.23145 24.9167V19.6019C7.23145 19.1127 7.62803 18.7161 8.11725 18.7161H33.8055" stroke="#00A24C" stroke-width="2" stroke-linecap="round" stroke-linejoin="round"></path><path fill-rule="evenodd" clip-rule="evenodd" d="M30.0942 35.9557C29.2293 36.8203 27.8272 36.8202 26.9625 35.9554C26.0978 35.0906 26.0978 33.6885 26.9625 32.8237C27.8272 31.9589 29.2293 31.9588 30.0942 32.8235C30.9583 33.6887 30.9583 35.0904 30.0942 35.9557Z" stroke="#00A24C" stroke-width="2" stroke-linecap="round" stroke-linejoin="round"></path><path fill-rule="evenodd" clip-rule="evenodd" d="M34.7765 31.9002L42.6637 24.0308V20.4875H39.1205L31.0172 28.1427C27.8941 26.8196 24.2714 27.8949 22.376 30.7077C20.4807 33.5205 20.8442 37.2819 23.2431 39.6797C25.642 42.0775 29.4036 42.4392 32.2155 40.5425C35.0274 38.6459 36.1011 35.0227 34.7765 31.9002V31.9002Z" stroke="#00A24C" stroke-width="2" stroke-linecap="round" stroke-linejoin="round"></path></svg> 