<?xml version="1.0" encoding="UTF-8"?> <svg xmlns="http://www.w3.org/2000/svg" width="46" height="46" viewBox="0 0 46 46" fill="none"><path d="M22.3553 44.6513C22.3553 44.6513 18.6021 42.9921 15.9785 42.0222C14.258 41.3812 14.5033 38.479 15.4992 37.3883C17.2457 35.6763 18.1082 33.2565 17.8384 30.8258C17.9874 29.2373 17.4485 27.6611 16.3583 26.4963C15.2681 25.3315 13.731 24.6896 12.1361 24.7333C10.5413 24.6896 9.00417 25.3315 7.91394 26.4963C6.82371 27.6611 6.28488 29.2373 6.43385 30.8258C6.16402 33.2565 7.02658 35.6763 8.7731 37.3883C9.769 38.479 10.0143 41.3812 8.29373 42.0222C5.6702 42.9921 1.91699 44.6513 1.91699 44.6513" stroke="#00A24C" stroke-width="2" stroke-linecap="round" stroke-linejoin="round"></path><path d="M44.6512 44.6513C44.6512 44.6513 40.898 42.9921 38.2744 42.0222C36.5539 41.3812 36.7992 38.4789 37.7951 37.3883C39.5416 35.6763 40.4041 33.2565 40.1343 30.8257C40.2782 28.6966 39.2239 26.6646 37.4003 25.5563C35.5766 24.448 33.2874 24.448 31.4638 25.5563C29.6401 26.6646 28.5859 28.6966 28.7297 30.8257C28.4599 33.2565 29.3225 35.6763 31.069 37.3883C32.0649 38.4789 32.3102 41.3812 30.5896 42.0222C27.9661 42.9921 24.2129 44.6513 24.2129 44.6513" stroke="#00A24C" stroke-width="2" stroke-linecap="round" stroke-linejoin="round"></path><path d="M29.7875 3.77466H35.3616C36.3877 3.77466 37.2196 4.60652 37.2196 5.63268V18.6389C37.2196 19.665 36.3877 20.4969 35.3616 20.4969H27.9295L22.3554 26.071V20.4969H9.34924C8.32308 20.4969 7.49121 19.665 7.49121 18.6389V5.63268C7.49121 4.60652 8.32308 3.77466 9.34924 3.77466H14.9233" stroke="#00A24C" stroke-width="2" stroke-linecap="round" stroke-linejoin="round"></path><path fill-rule="evenodd" clip-rule="evenodd" d="M16.7812 7.48511H27.9294V16.7752H16.7812V7.48511Z" stroke="#00A24C" stroke-width="2" stroke-linecap="round" stroke-linejoin="round"></path><path fill-rule="evenodd" clip-rule="evenodd" d="M22.3547 1.91675V1.91675C20.3024 1.91675 18.6387 3.58048 18.6387 5.6328V7.49082H26.0708V5.6328C26.0708 3.58048 24.407 1.91675 22.3547 1.91675Z" stroke="#00A24C" stroke-width="2" stroke-linecap="round" stroke-linejoin="round"></path><path d="M22.3548 11.7011C22.6113 11.7011 22.8193 11.909 22.8193 12.1656C22.8193 12.4221 22.6113 12.6301 22.3548 12.6301C22.0983 12.6301 21.8903 12.4221 21.8903 12.1656C21.8903 11.909 22.0983 11.7011 22.3548 11.7011" stroke="#00A24C" stroke-width="2" stroke-linecap="round" stroke-linejoin="round"></path></svg> 