<svg xmlns="http://www.w3.org/2000/svg" width="14.539" height="14.539" viewBox="0 0 14.539 14.539">
  <g id="Group_11" data-name="Group 11" transform="translate(0.5 0.5)">
    <g id="Group_2" data-name="Group 2" transform="translate(0)">
      <path id="Path" d="M0,6.77A6.77,6.77,0,1,0,6.77,0,6.77,6.77,0,0,0,0,6.77Z" transform="translate(0 0)" fill="none" stroke="#00a24c" stroke-linecap="round" stroke-linejoin="round" stroke-miterlimit="10" stroke-width="1"/>
      <path id="Path-2" data-name="Path" d="M1.528,13.144A12.461,12.461,0,0,1,0,6.572,12.461,12.461,0,0,1,1.528,0" transform="translate(3.611 0.198)" fill="none" stroke="#00a24c" stroke-linecap="round" stroke-linejoin="round" stroke-miterlimit="10" stroke-width="1"/>
      <path id="Path-3" data-name="Path" d="M0,.3H13.539" transform="translate(0 6.469)" fill="none" stroke="#00a24c" stroke-linecap="round" stroke-linejoin="round" stroke-miterlimit="10" stroke-width="1"/>
      <path id="Path-4" data-name="Path" d="M0,.3H11.455" transform="translate(1.042 10.079)" fill="none" stroke="#00a24c" stroke-linecap="round" stroke-linejoin="round" stroke-miterlimit="10" stroke-width="1"/>
      <path id="Path-5" data-name="Path" d="M0,.3H11.455" transform="translate(1.042 2.858)" fill="none" stroke="#00a24c" stroke-linecap="round" stroke-linejoin="round" stroke-miterlimit="10" stroke-width="1"/>
      <path id="Path-6" data-name="Path" d="M0,0A12.461,12.461,0,0,1,1.528,6.572,12.461,12.461,0,0,1,0,13.144" transform="translate(8.401 0.198)" fill="none" stroke="#00a24c" stroke-linecap="round" stroke-linejoin="round" stroke-miterlimit="10" stroke-width="1"/>
    </g>
  </g>
</svg>
