<svg xmlns="http://www.w3.org/2000/svg" width="14.525" height="14.525" viewBox="0 0 14.525 14.525">
  <g id="Group_2" data-name="Group 2" transform="translate(-327 -13)">
    <path id="Path" d="M6.281,0a6.281,6.281,0,1,0,6.281,6.281A6.281,6.281,0,0,0,6.281,0Z" transform="translate(327 13)" fill="#00685e"/>
    <path id="Path-2" data-name="Path" d="M4.281,0A4.281,4.281,0,1,1,0,4.281,4.281,4.281,0,0,1,4.281,0Z" transform="translate(329 15)" fill="#ebf6f5"/>
    <path id="Path-3" data-name="Path" d="M.293.293A1,1,0,0,1,1.613.21l.094.083L5.217,3.8A1,1,0,0,1,3.9,5.3L3.8,5.217.293,1.707A1,1,0,0,1,.293.293Z" transform="translate(336.016 22.016)" fill="#00685e"/>
  </g>
</svg>
